<?xml version="1.0" encoding="UTF-8" standalone="no"?>
<!-- Svg Vector Icons : http://www.onlinewebfonts.com/icon -->

<svg
   version="1.1"
   x="0px"
   y="0px"
   viewBox="0 0 1000 1000"
   enable-background="new 0 0 1000 1000"
   xml:space="preserve"
   id="svg10"
   sodipodi:docname="suspend.svg"
   inkscape:version="1.1.1 (3bf5ae0d25, 2021-09-20, custom)"
   xmlns:inkscape="http://www.inkscape.org/namespaces/inkscape"
   xmlns:sodipodi="http://sodipodi.sourceforge.net/DTD/sodipodi-0.dtd"
   xmlns="http://www.w3.org/2000/svg"
   xmlns:svg="http://www.w3.org/2000/svg"><defs
   id="defs14" /><sodipodi:namedview
   id="namedview12"
   pagecolor="#ffffff"
   bordercolor="#666666"
   borderopacity="1.0"
   inkscape:pageshadow="2"
   inkscape:pageopacity="0.0"
   inkscape:pagecheckerboard="0"
   showgrid="false"
   inkscape:zoom="0.682"
   inkscape:cx="499.26686"
   inkscape:cy="500"
   inkscape:window-width="2048"
   inkscape:window-height="1091"
   inkscape:window-x="1920"
   inkscape:window-y="31"
   inkscape:window-maximized="1"
   inkscape:current-layer="svg10" />
<metadata
   id="metadata2"> Svg Vector Icons : http://www.onlinewebfonts.com/icon </metadata>
<g
   id="g8"
   style="fill:#f9f9f9"><path
     d="M239.3,446.6h521.3v86.9H239.3V446.6L239.3,446.6z"
     id="path4"
     style="fill:#f9f9f9" /><path
     d="M500,10C229.4,10,10,229.4,10,500s219.4,490,490,490s490-219.4,490-490C990,229.4,770.6,10,500,10z M784.9,784.9c-37,37-80.1,66.1-128.1,86.4c-49.6,21-102.4,31.6-156.8,31.6c-54.4,0-107.2-10.6-156.8-31.6c-48-20.3-91.1-49.4-128.1-86.4c-37-37-66.1-80.1-86.4-128.1c-21-49.6-31.6-102.4-31.6-156.8c0-54.4,10.6-107.2,31.6-156.8c20.3-48,49.3-91.1,86.4-128.1s80.1-66.1,128.1-86.4c49.6-21,102.4-31.6,156.8-31.6s107.2,10.6,156.8,31.6c48,20.3,91.1,49.3,128.1,86.4c37,37,66.1,80.1,86.4,128.1c21,49.6,31.6,102.4,31.6,156.8c0,54.4-10.6,107.2-31.6,156.8C851,704.8,821.9,747.9,784.9,784.9z"
     id="path6"
     style="fill:#f9f9f9" /></g>
</svg>
